<?xml version="1.0" standalone="no"?>
<!DOCTYPE svg PUBLIC "-//W3C//DTD SVG 20010904//EN"
 "http://www.w3.org/TR/2001/REC-SVG-20010904/DTD/svg10.dtd">
<svg version="1.0" xmlns="http://www.w3.org/2000/svg"
 width="320.000000pt" height="320.000000pt" viewBox="0 0 320.000000 320.000000"
 preserveAspectRatio="xMidYMid meet">

<g transform="translate(0.000000,320.000000) scale(0.100000,-0.100000)"
fill="#000000" stroke="none">
<path d="M1440 3194 c-192 -24 -377 -77 -535 -154 -460 -224 -775 -635 -877
-1144 -32 -159 -32 -433 0 -592 132 -657 619 -1144 1276 -1276 159 -32 433
-32 592 0 581 116 1039 518 1223 1071 57 174 76 294 76 501 0 207 -18 326 -76
501 -180 547 -645 956 -1215 1069 -106 21 -375 35 -464 24z m-272 -1381 c-10
-2 -26 -2 -35 0 -10 3 -2 5 17 5 19 0 27 -2 18 -5z m1089 -27 c-79 -79 -82
-284 -6 -371 36 -41 28 -45 -23 -10 -99 67 -115 256 -30 357 20 24 68 55 90
58 1 0 -12 -15 -31 -34z m-2007 -185 c0 -158 3 -211 13 -214 6 -3 -10 -5 -38
-5 -27 0 -44 2 -37 5 9 3 12 56 12 214 l0 209 25 0 25 0 0 -209z m159 183 c45
-57 12 -172 -48 -174 -11 0 -10 3 3 13 11 8 20 31 23 60 6 54 -1 90 -23 111
-14 15 -14 16 5 16 11 0 29 -12 40 -26z m113 -79 l-3 -105 45 0 c26 0 46 5 49
13 3 6 5 -1 5 -18 0 -16 -2 -24 -5 -17 -3 7 -23 12 -49 12 l-44 0 0 -100 0
-100 39 0 c55 0 87 14 105 47 l15 28 1 -42 0 -43 -107 0 -108 0 3 215 3 215
27 0 27 0 -3 -105z m158 63 c0 -41 -1 -42 -13 -18 -7 14 -28 33 -47 42 l-35
18 48 0 47 0 0 -42z m292 -173 l-3 -215 -24 0 -25 0 0 110 c0 92 -3 110 -15
110 -9 0 -47 -49 -86 -110 -58 -90 -76 -110 -95 -110 -23 0 -21 6 42 106 64
105 69 123 28 124 -36 0 -68 81 -53 135 15 54 40 65 144 65 l90 0 -3 -215z
m119 189 c-45 -58 -15 -143 56 -160 45 -11 100 -42 117 -66 32 -46 7 -131 -46
-159 l-23 -12 23 25 c28 31 29 86 2 121 -12 16 -41 32 -73 41 -57 16 -89 44
-106 89 -15 39 2 100 36 126 35 28 39 26 14 -5z m133 11 c10 -8 23 -12 27 -9
5 3 9 -23 8 -58 -1 -66 -3 -67 -14 -4 -3 21 -17 49 -30 62 -26 26 -21 32 9 9z
m146 -90 l0 -105 38 0 c21 0 43 5 50 12 9 9 12 6 12 -17 0 -23 -3 -26 -12 -17
-7 7 -29 12 -50 12 l-38 0 0 -100 0 -100 46 0 c41 0 51 5 81 36 l34 37 -3 -39
-3 -39 -115 -2 c-63 -1 -109 1 -102 3 9 4 12 57 12 215 l0 209 25 0 25 0 0
-105z m160 65 c0 -45 -6 -51 -19 -17 -5 13 -24 31 -43 40 l-33 17 48 0 47 0 0
-40z m82 -161 c-1 -139 1 -206 9 -215 9 -12 3 -14 -32 -14 -27 0 -39 4 -31 8
10 7 12 55 10 215 l-3 207 25 0 25 0 -3 -201z m143 195 c23 -9 45 -57 45 -98
0 -37 -40 -96 -66 -96 -11 0 -9 7 7 29 18 25 21 38 16 82 -4 28 -14 60 -23 70
-17 19 -9 24 21 13z m135 -99 l0 -105 80 0 80 0 0 105 0 105 25 0 25 0 0 -209
c0 -158 3 -211 13 -214 6 -3 -6 -6 -28 -6 l-40 -1 3 105 3 105 -81 0 -81 0 3
-105 3 -105 -30 0 -30 0 3 215 3 215 24 0 c25 0 25 0 25 -105z m500 79 c54
-46 75 -98 75 -189 0 -70 -4 -86 -28 -128 -25 -43 -76 -87 -101 -87 -4 0 5 14
22 31 79 81 79 292 0 376 -29 32 -7 29 32 -3z m265 -136 l80 -157 5 162 6 162
2 -219 c1 -132 -2 -216 -7 -210 -5 5 -53 95 -107 199 -53 105 -104 198 -113
208 -15 18 -14 18 19 15 34 -3 37 -6 115 -160z m215 56 l0 -106 45 4 c26 2 45
-1 45 -7 0 -6 -19 -9 -45 -7 l-45 4 0 -101 0 -101 44 0 c46 0 96 29 96 56 0 8
4 13 8 10 5 -3 8 -15 6 -28 -1 -13 -3 -29 -3 -35 -1 -10 -31 -13 -113 -13 -63
0 -107 4 -100 8 10 7 12 55 10 215 l-3 207 28 0 27 0 0 -106z m154 68 c1 -35
-9 -43 -18 -14 -4 10 -21 26 -39 35 l-32 16 44 -2 c42 -2 44 -3 45 -35z
m-1954 -347 c19 -20 18 -20 -11 -20 -28 0 -29 2 -28 45 0 40 1 42 10 20 6 -14
19 -34 29 -45z m87 -41 c-3 -3 -12 -4 -19 -1 -8 3 -5 6 6 6 11 1 17 -2 13 -5z
m1381 -1 c-10 -2 -26 -2 -35 0 -10 3 -2 5 17 5 19 0 27 -2 18 -5z"/>
<path d="M796 1778 c-10 -13 -16 -43 -16 -73 0 -75 18 -95 86 -95 l54 0 0 95
0 95 -54 0 c-45 0 -58 -4 -70 -22z"/>
</g>
</svg>
